<svg width="214" height="172" viewBox="0 0 214 172" fill="none" xmlns="http://www.w3.org/2000/svg">
<path d="M213.684 82.4C212.984 77.3 210.284 72.4 205.984 68.3C199.284 62.1 189.484 57 176.784 53.1L176.384 53L176.284 53.4C175.684 55.2 174.984 57.1 174.184 58.9L173.984 59.3L174.384 59.5C175.084 59.8 175.884 60.1 176.584 60.4C186.984 64.8 194.084 69.4 198.784 74.8L198.884 74.9C202.384 79 203.484 83.1 202.084 86.9C200.884 90.2 197.884 93.4 193.084 96.5C181.484 103.6 164.684 108.5 143.284 111.2H143.084L142.984 111.3C137.784 117.9 132.084 124.2 126.284 130.2L125.484 131L126.584 130.9C149.784 128.9 170.884 123.6 187.484 115.6C194.184 112.2 203.784 106.7 209.684 97.9C213.084 93 214.384 87.6 213.684 82.4Z" fill="#4A9D76"/>
<path d="M136.384 112.6C137.884 110.8 139.384 109 140.884 107.2C148.484 97.8 155.184 88 160.884 78.3C164.584 71.9 167.884 65.5 170.584 59.3L171.184 57.8C171.884 56.1 172.684 54.3 173.284 52.6C173.484 52.1 173.684 51.6 173.884 51.1C179.884 34.9 180.984 21.8 177.184 12.3C174.084 4.6 166.984 0 158.284 0C152.384 0 143.584 1.3 127.984 10.6L126.184 11.7H126.084C111.184 21.1 98.4837 33 89.1837 42.3C88.5837 42.9 87.9837 43.5 87.3837 44.1C87.0837 44.4 86.7838 44.7 86.4837 45C70.2838 46 55.7838 48.2 43.3838 51.3C27.6838 55.3 15.6838 61 7.88375 68.2C3.58375 72.3 0.88375 77.2 0.18375 82.3C-0.51625 87.5 0.78375 92.9 4.08375 97.8C9.98375 106.6 19.5838 112.1 26.2838 115.5C26.7838 115.8 27.2838 116 27.8838 116.2L29.4837 116.9C30.1838 117.2 30.7837 117.5 31.4837 117.8C34.1838 119 36.9837 120.1 39.9837 121.1L42.0838 121.8C55.0838 126.2 69.6837 129.2 85.3837 130.6H85.5837L85.6837 130.5C91.7837 125.5 98.0837 119.9 104.284 113.9L104.984 113.2H103.984C88.9837 113 67.0837 111.8 47.6838 106.9C47.1838 106.8 46.5838 106.6 46.0838 106.5C43.4838 105.8 40.9838 105.1 38.5838 104.3C38.0838 104.1 37.4837 103.9 36.9837 103.8C30.7837 101.7 25.3838 99.2 20.7838 96.4C15.9838 93.3 12.9838 90.1 11.7838 86.8C10.3838 83 11.4838 78.9 14.9838 74.8C21.1838 67.6 30.6837 63.1 37.2837 60.3C50.5837 54.9 65.6837 51.2 82.1837 49.4L81.9837 49.7C80.3838 51.3 78.8837 53 77.2837 54.6L72.5837 59.5C59.3837 73.8 48.4837 87.7 40.3838 100.8L40.0838 101.3L40.5838 101.5C42.8838 102.2 45.3838 102.8 47.8838 103.3L48.1838 103.4L48.3838 103.1C55.2838 89.8 64.9837 75.2 75.5837 62.2C78.8838 58.1 82.5837 54 86.7837 49.9C87.0837 49.6 87.3837 49.3 87.6837 49C93.7837 48.5 100.284 48.2 106.984 48.2C123.884 48.3 138.784 49.9 152.684 53L152.984 53.1L153.184 52.8C153.884 51.5 154.684 50.2 155.384 48.8L155.684 48.3L155.184 48.1C136.984 45 118.984 44.3 107.084 44.3C102.184 44.3 97.1837 44.4 92.2837 44.7L92.4837 44.5C108.784 29.5 126.984 17.7 142.284 12.2C146.684 10.7 150.484 9.9 153.884 9.6C158.584 9.3 162.184 10.2 164.384 12.4C166.884 15.1 167.784 19.5 166.884 25.6C166.284 29.7 164.984 34.4 162.984 39.8L162.584 40.8C161.684 43.1 160.584 45.4 159.484 47.8C159.284 48.2 159.084 48.5 158.984 48.9L158.384 50.1C158.084 50.8 157.684 51.5 157.284 52.2L156.084 54.4C146.784 71.6 132.684 90.7 116.084 108.2L114.884 109.5C113.584 110.8 112.384 112.1 111.184 113.4C105.084 119.6 98.8837 125.3 92.6837 130.6C90.6837 132.3 88.7838 133.8 86.9837 135.3C85.1837 136.7 83.3838 138.1 81.5837 139.5L79.6837 140.8C73.9837 144.9 68.7837 148.1 64.0837 150.6C56.5837 154.5 50.1838 156.6 44.9837 156.7C42.7837 156.8 40.6838 156.2 39.3838 155.3L39.0838 155.1C37.8838 154.1 36.7837 152.2 36.2837 150.2C35.6838 147.7 35.4837 144.9 35.7837 141.6C36.2837 136.5 37.3837 131 39.2837 125.3L39.3838 124.9L38.9837 124.8C35.9837 123.7 33.0838 122.5 30.2838 121.2L29.8838 121L29.6838 121.4C28.2838 124.7 26.9837 127.9 25.9837 131.1L25.4837 132.5C23.5837 138.9 21.4838 148.4 24.3838 157.3C26.6838 164 31.1837 168.4 37.7837 170.6C40.8837 171.6 43.9837 172 46.9837 172C50.7837 172 54.3838 171.4 57.1838 170.7C67.9837 168.1 78.5837 162.9 91.7837 154C99.0837 149 106.284 143.3 113.284 136.9C114.684 135.6 116.184 134.2 117.584 132.9L118.984 131.5C122.784 127.8 126.584 123.9 130.384 119.7C132.484 117.2 134.484 114.9 136.384 112.6Z" fill="#4A9D76"/>
</svg>
